<svg xmlns="http://www.w3.org/2000/svg" version="1.1" xmlns:xlink="http://www.w3.org/1999/xlink" xmlns:svgjs="http://svgjs.com/svgjs" width="1440" height="560" preserveAspectRatio="none" viewBox="0 0 1440 560"><g mask="url(&quot;#SvgjsMask1005&quot;)" fill="none"><path d="M1155.56 500.89L1155.56 502.75L1172.17 502.75L1172.17 500.89zM1168.87 501.82 a3.3 3.3 0 1 0 6.6 0 a3.3 3.3 0 1 0 -6.6 0zM1153.21 514.58L1152.49 516.3L1158.97 518.98L1159.68 517.26zM1156.03 518.12 a3.3 3.3 0 1 0 6.6 0 a3.3 3.3 0 1 0 -6.6 0zM1145.8 526.32L1144.48 527.64L1153.22 536.38L1154.54 535.06zM1150.58 535.72 a3.3 3.3 0 1 0 6.6 0 a3.3 3.3 0 1 0 -6.6 0zM1134.45 534.34L1132.73 535.05L1134.5 539.33L1136.23 538.62zM1132.06 538.97 a3.3 3.3 0 1 0 6.6 0 a3.3 3.3 0 1 0 -6.6 0zM1120.91 537.4L1119.04 537.4L1119.04 554.59L1120.91 554.59zM1116.67 554.59 a3.3 3.3 0 1 0 6.6 0 a3.3 3.3 0 1 0 -6.6 0zM1107.22 535.05L1105.5 534.34L1101.04 545.09L1102.76 545.81zM1098.6 545.45 a3.3 3.3 0 1 0 6.6 0 a3.3 3.3 0 1 0 -6.6 0zM1095.47 527.64L1094.15 526.32L1089.23 531.24L1090.55 532.56zM1086.59 531.9 a3.3 3.3 0 1 0 6.6 0 a3.3 3.3 0 1 0 -6.6 0zM1087.46 516.3L1086.74 514.58L1076.31 518.9L1077.03 520.62zM1073.37 519.76 a3.3 3.3 0 1 0 6.6 0 a3.3 3.3 0 1 0 -6.6 0zM1084.39 502.75L1084.39 500.89L1069.64 500.89L1069.64 502.75zM1066.34 501.82 a3.3 3.3 0 1 0 6.6 0 a3.3 3.3 0 1 0 -6.6 0zM1086.74 489.06L1087.46 487.34L1076.9 482.97L1076.18 484.69zM1073.24 483.83 a3.3 3.3 0 1 0 6.6 0 a3.3 3.3 0 1 0 -6.6 0zM1094.15 477.32L1095.47 476L1083.23 463.76L1081.91 465.08zM1079.27 464.42 a3.3 3.3 0 1 0 6.6 0 a3.3 3.3 0 1 0 -6.6 0zM1105.5 469.3L1107.22 468.59L1101.75 455.39L1100.03 456.11zM1097.59 455.75 a3.3 3.3 0 1 0 6.6 0 a3.3 3.3 0 1 0 -6.6 0zM1119.04 466.24L1120.91 466.24L1120.91 452.73L1119.04 452.73zM1116.67 452.73 a3.3 3.3 0 1 0 6.6 0 a3.3 3.3 0 1 0 -6.6 0zM1132.73 468.59L1134.45 469.3L1140.24 455.32L1138.52 454.61zM1136.08 454.97 a3.3 3.3 0 1 0 6.6 0 a3.3 3.3 0 1 0 -6.6 0zM1144.48 476L1145.8 477.32L1150.26 472.85L1148.95 471.53zM1146.31 472.19 a3.3 3.3 0 1 0 6.6 0 a3.3 3.3 0 1 0 -6.6 0zM1152.49 487.34L1153.21 489.06L1163.55 484.78L1162.84 483.06zM1159.9 483.92 a3.3 3.3 0 1 0 6.6 0 a3.3 3.3 0 1 0 -6.6 0zM1084.37 501.82 a35.6 35.6 0 1 0 71.2 0 a35.6 35.6 0 1 0 -71.2 0z" fill="rgba(187, 188, 189, 1)"></path><path d="M1095.05 527.24 A34.5968 34.5968 0 0 1 1110.35 467.55M1110.35 467.55 A71.1936 71.1936 0 0 0 1095.05 527.24" fill="#959698" fill-rule="nonzero"></path><path d="M1149.7 515.36 a1.42 1.42 0 1 0 2.84 0 a1.42 1.42 0 1 0 -2.84 0zM1086.31 512.58 a3.92 3.92 0 1 0 7.84 0 a3.92 3.92 0 1 0 -7.84 0zM1123.65 516.25 a7.12 7.12 0 1 0 14.24 0 a7.12 7.12 0 1 0 -14.24 0zM1093.07 480.41 a3.92 3.92 0 1 0 7.84 0 a3.92 3.92 0 1 0 -7.84 0zM1092.13 500.23 a1.42 1.42 0 1 0 2.84 0 a1.42 1.42 0 1 0 -2.84 0zM1117.58 535.86 a1.42 1.42 0 1 0 2.84 0 a1.42 1.42 0 1 0 -2.84 0zM1108.21 478 a6.05 6.05 0 1 0 12.1 0 a6.05 6.05 0 1 0 -12.1 0zM1142.6 492.96 a5.7 5.7 0 1 0 11.4 0 a5.7 5.7 0 1 0 -11.4 0zM1112.97 493.38 a2.14 2.14 0 1 0 4.28 0 a2.14 2.14 0 1 0 -4.28 0zM1103.48 531.05 a3.2 3.2 0 1 0 6.4 0 a3.2 3.2 0 1 0 -6.4 0z" fill="#959698" fill-rule="nonzero"></path><path d="M719.7 271.85L719.7 275.58L729.7 275.58L729.7 271.85zM723.1 273.72 a6.6 6.6 0 1 0 13.2 0 a6.6 6.6 0 1 0 -13.2 0zM714.99 299.23L713.56 302.68L724.17 307.07L725.6 303.62zM718.28 305.35 a6.6 6.6 0 1 0 13.2 0 a6.6 6.6 0 1 0 -13.2 0zM700.17 322.72L697.53 325.36L711.89 339.71L714.52 337.08zM706.6 338.4 a6.6 6.6 0 1 0 13.2 0 a6.6 6.6 0 1 0 -13.2 0zM677.48 338.76L674.04 340.18L684.89 366.38L688.33 364.95zM680.01 365.66 a6.6 6.6 0 1 0 13.2 0 a6.6 6.6 0 1 0 -13.2 0zM650.39 344.89L646.66 344.89L646.66 360.15L650.39 360.15zM641.93 360.15 a6.6 6.6 0 1 0 13.2 0 a6.6 6.6 0 1 0 -13.2 0zM623.01 340.18L619.57 338.76L606.9 369.34L610.35 370.76zM602.02 370.05 a6.6 6.6 0 1 0 13.2 0 a6.6 6.6 0 1 0 -13.2 0zM599.52 325.36L596.88 322.72L578.8 340.81L581.44 343.44zM573.52 342.12 a6.6 6.6 0 1 0 13.2 0 a6.6 6.6 0 1 0 -13.2 0zM583.49 302.68L582.06 299.23L554.84 310.51L556.27 313.95zM548.96 312.23 a6.6 6.6 0 1 0 13.2 0 a6.6 6.6 0 1 0 -13.2 0zM577.36 275.58L577.36 271.85L555.47 271.85L555.47 275.58zM548.87 273.72 a6.6 6.6 0 1 0 13.2 0 a6.6 6.6 0 1 0 -13.2 0zM582.06 248.2L583.49 244.76L574.56 241.06L573.14 244.51zM567.25 242.79 a6.6 6.6 0 1 0 13.2 0 a6.6 6.6 0 1 0 -13.2 0zM596.88 224.71L599.52 222.08L591.15 213.71L588.52 216.35zM583.24 215.03 a6.6 6.6 0 1 0 13.2 0 a6.6 6.6 0 1 0 -13.2 0zM619.57 208.68L623.01 207.25L611.65 179.81L608.2 181.24zM603.33 180.53 a6.6 6.6 0 1 0 13.2 0 a6.6 6.6 0 1 0 -13.2 0zM646.66 202.55L650.39 202.55L650.39 169.44L646.66 169.44zM641.93 169.44 a6.6 6.6 0 1 0 13.2 0 a6.6 6.6 0 1 0 -13.2 0zM674.04 207.25L677.48 208.68L688.91 181.08L685.47 179.66zM680.59 180.37 a6.6 6.6 0 1 0 13.2 0 a6.6 6.6 0 1 0 -13.2 0zM697.53 222.08L700.17 224.71L715.43 209.45L712.8 206.81zM707.52 208.13 a6.6 6.6 0 1 0 13.2 0 a6.6 6.6 0 1 0 -13.2 0zM713.56 244.76L714.99 248.2L731.66 241.3L730.23 237.86zM724.34 239.58 a6.6 6.6 0 1 0 13.2 0 a6.6 6.6 0 1 0 -13.2 0zM577.34 273.72 a71.19 71.19 0 1 0 142.38 0 a71.19 71.19 0 1 0 -142.38 0z" fill="rgba(187, 188, 189, 1)"></path><path d="M704.44 229.64 A70.1936 70.1936 0 0 1 658.89 344.15M658.89 344.15 A142.3872 142.3872 0 0 0 704.44 229.64" fill="#959698" fill-rule="nonzero"></path><path d="M601.36 325.17 a2.85 2.85 0 1 0 5.7 0 a2.85 2.85 0 1 0 -5.7 0zM617.17 229.85 a14.24 14.24 0 1 0 28.48 0 a14.24 14.24 0 1 0 -28.48 0zM583 295.04 a13.53 13.53 0 1 0 27.06 0 a13.53 13.53 0 1 0 -27.06 0zM624.16 291.39 a3.56 3.56 0 1 0 7.12 0 a3.56 3.56 0 1 0 -7.12 0zM681.39 271.86 a14.24 14.24 0 1 0 28.48 0 a14.24 14.24 0 1 0 -28.48 0zM621.29 264.17 a5.7 5.7 0 1 0 11.4 0 a5.7 5.7 0 1 0 -11.4 0zM664.91 315.01 a14.24 14.24 0 1 0 28.48 0 a14.24 14.24 0 1 0 -28.48 0zM659.68 223.48 a11.39 11.39 0 1 0 22.78 0 a11.39 11.39 0 1 0 -22.78 0zM621.7 327.2 a4.27 4.27 0 1 0 8.54 0 a4.27 4.27 0 1 0 -8.54 0zM645.86 328.35 a3.56 3.56 0 1 0 7.12 0 a3.56 3.56 0 1 0 -7.12 0z" fill="#959698" fill-rule="nonzero"></path><path d="M1397.77 120.32L1397.77 123.12L1417.65 123.12L1417.65 120.32zM1412.7 121.72 a4.95 4.95 0 1 0 9.9 0 a4.95 4.95 0 1 0 -9.9 0zM1394.24 140.86L1393.17 143.44L1411.62 151.08L1412.69 148.5zM1407.2 149.79 a4.95 4.95 0 1 0 9.9 0 a4.95 4.95 0 1 0 -9.9 0zM1383.12 158.48L1381.15 160.45L1396.06 175.37L1398.04 173.39zM1392.1 174.38 a4.95 4.95 0 1 0 9.9 0 a4.95 4.95 0 1 0 -9.9 0zM1366.11 170.5L1363.53 171.57L1367.38 180.88L1369.97 179.81zM1363.73 180.35 a4.95 4.95 0 1 0 9.9 0 a4.95 4.95 0 1 0 -9.9 0zM1345.79 175.1L1342.99 175.1L1342.99 188.75L1345.79 188.75zM1339.44 188.75 a4.95 4.95 0 1 0 9.9 0 a4.95 4.95 0 1 0 -9.9 0zM1325.26 171.57L1322.67 170.5L1318.74 180.01L1321.32 181.08zM1315.08 180.54 a4.95 4.95 0 1 0 9.9 0 a4.95 4.95 0 1 0 -9.9 0zM1307.64 160.45L1305.66 158.48L1299.43 164.71L1301.41 166.68zM1295.47 165.69 a4.95 4.95 0 1 0 9.9 0 a4.95 4.95 0 1 0 -9.9 0zM1295.61 143.44L1294.54 140.86L1288.03 143.55L1289.1 146.14zM1283.61 144.85 a4.95 4.95 0 1 0 9.9 0 a4.95 4.95 0 1 0 -9.9 0zM1291.01 123.12L1291.01 120.32L1272.06 120.32L1272.06 123.12zM1267.11 121.72 a4.95 4.95 0 1 0 9.9 0 a4.95 4.95 0 1 0 -9.9 0zM1294.54 102.59L1295.61 100L1279.73 93.43L1278.66 96.01zM1274.25 94.72 a4.95 4.95 0 1 0 9.9 0 a4.95 4.95 0 1 0 -9.9 0zM1305.66 84.97L1307.64 82.99L1289.94 65.29L1287.96 67.27zM1284 66.28 a4.95 4.95 0 1 0 9.9 0 a4.95 4.95 0 1 0 -9.9 0zM1322.67 72.94L1325.26 71.87L1316.52 50.79L1313.94 51.86zM1310.28 51.32 a4.95 4.95 0 1 0 9.9 0 a4.95 4.95 0 1 0 -9.9 0zM1342.99 68.34L1345.79 68.34L1345.79 60.25L1342.99 60.25zM1339.44 60.25 a4.95 4.95 0 1 0 9.9 0 a4.95 4.95 0 1 0 -9.9 0zM1363.53 71.87L1366.11 72.94L1373.69 54.65L1371.1 53.58zM1367.44 54.11 a4.95 4.95 0 1 0 9.9 0 a4.95 4.95 0 1 0 -9.9 0zM1381.15 82.99L1383.12 84.97L1397.63 70.46L1395.66 68.48zM1391.69 69.47 a4.95 4.95 0 1 0 9.9 0 a4.95 4.95 0 1 0 -9.9 0zM1393.17 100L1394.24 102.59L1409.69 96.19L1408.62 93.61zM1404.2 94.9 a4.95 4.95 0 1 0 9.9 0 a4.95 4.95 0 1 0 -9.9 0zM1290.99 121.72 a53.4 53.4 0 1 0 106.8 0 a53.4 53.4 0 1 0 -106.8 0z" fill="rgba(187, 188, 189, 1)"></path><path d="M1386.55 154.48 A52.3952 52.3952 0 0 1 1294.98 141.96M1294.98 141.96 A106.7904 106.7904 0 0 0 1386.55 154.48" fill="#959698" fill-rule="nonzero"></path><path d="M1299.12 109.57 a10.68 10.68 0 1 0 21.36 0 a10.68 10.68 0 1 0 -21.36 0zM1334.38 163.2 a10.68 10.68 0 1 0 21.36 0 a10.68 10.68 0 1 0 -21.36 0zM1304.97 143.34 a10.68 10.68 0 1 0 21.36 0 a10.68 10.68 0 1 0 -21.36 0zM1336.21 130.68 a10.68 10.68 0 1 0 21.36 0 a10.68 10.68 0 1 0 -21.36 0zM1378.5 100.87 a6.94 6.94 0 1 0 13.88 0 a6.94 6.94 0 1 0 -13.88 0zM1368.2 133.47 a9.08 9.08 0 1 0 18.16 0 a9.08 9.08 0 1 0 -18.16 0zM1368.52 164.73 a2.67 2.67 0 1 0 5.34 0 a2.67 2.67 0 1 0 -5.34 0zM1309.76 83.37 a3.74 3.74 0 1 0 7.48 0 a3.74 3.74 0 1 0 -7.48 0zM1337.39 78.52 a9.61 9.61 0 1 0 19.22 0 a9.61 9.61 0 1 0 -19.22 0zM1333.12 107.94 a3.2 3.2 0 1 0 6.4 0 a3.2 3.2 0 1 0 -6.4 0z" fill="#959698" fill-rule="nonzero"></path><path d="M1280.03 332.46L1280.03 334.79L1294.63 334.79L1294.63 332.46zM1290.5 333.62 a4.13 4.13 0 1 0 8.26 0 a4.13 4.13 0 1 0 -8.26 0zM1277.09 349.57L1276.2 351.72L1288.46 356.8L1289.35 354.65zM1284.78 355.73 a4.13 4.13 0 1 0 8.26 0 a4.13 4.13 0 1 0 -8.26 0zM1267.83 364.25L1266.18 365.9L1280.25 379.97L1281.89 378.32zM1276.94 379.14 a4.13 4.13 0 1 0 8.26 0 a4.13 4.13 0 1 0 -8.26 0zM1253.65 374.27L1251.5 375.17L1255.78 385.5L1257.93 384.61zM1252.73 385.06 a4.13 4.13 0 1 0 8.26 0 a4.13 4.13 0 1 0 -8.26 0zM1236.72 378.11L1234.39 378.11L1234.39 386.94L1236.72 386.94zM1231.42 386.94 a4.13 4.13 0 1 0 8.26 0 a4.13 4.13 0 1 0 -8.26 0zM1219.61 375.17L1217.46 374.27L1213.35 384.18L1215.51 385.07zM1210.3 384.62 a4.13 4.13 0 1 0 8.26 0 a4.13 4.13 0 1 0 -8.26 0zM1204.92 365.9L1203.28 364.25L1190.29 377.24L1191.94 378.89zM1186.98 378.07 a4.13 4.13 0 1 0 8.26 0 a4.13 4.13 0 1 0 -8.26 0zM1194.9 351.72L1194.01 349.57L1183.9 353.76L1184.79 355.91zM1180.21 354.84 a4.13 4.13 0 1 0 8.26 0 a4.13 4.13 0 1 0 -8.26 0zM1191.07 334.79L1191.07 332.46L1180.08 332.46L1180.08 334.79zM1175.95 333.62 a4.13 4.13 0 1 0 8.26 0 a4.13 4.13 0 1 0 -8.26 0zM1194.01 317.68L1194.9 315.53L1184.42 311.18L1183.53 313.34zM1179.84 312.26 a4.13 4.13 0 1 0 8.26 0 a4.13 4.13 0 1 0 -8.26 0zM1203.28 303L1204.92 301.35L1196.71 293.13L1195.06 294.78zM1191.75 293.96 a4.13 4.13 0 1 0 8.26 0 a4.13 4.13 0 1 0 -8.26 0zM1217.46 292.98L1219.61 292.08L1214.45 279.63L1212.3 280.52zM1209.24 280.08 a4.13 4.13 0 1 0 8.26 0 a4.13 4.13 0 1 0 -8.26 0zM1234.39 289.14L1236.72 289.14L1236.72 279.05L1234.39 279.05zM1231.42 279.05 a4.13 4.13 0 1 0 8.26 0 a4.13 4.13 0 1 0 -8.26 0zM1251.5 292.08L1253.65 292.98L1260.01 277.63L1257.86 276.74zM1254.8 277.18 a4.13 4.13 0 1 0 8.26 0 a4.13 4.13 0 1 0 -8.26 0zM1266.18 301.35L1267.83 303L1282.13 288.7L1280.48 287.05zM1277.17 287.87 a4.13 4.13 0 1 0 8.26 0 a4.13 4.13 0 1 0 -8.26 0zM1276.2 315.53L1277.09 317.68L1289.52 312.53L1288.63 310.38zM1284.94 311.46 a4.13 4.13 0 1 0 8.26 0 a4.13 4.13 0 1 0 -8.26 0zM1191.05 333.62 a44.5 44.5 0 1 0 89 0 a44.5 44.5 0 1 0 -89 0z" fill="rgba(187, 188, 189, 1)"></path><path d="M1195.89 353.8 A43.496 43.496 0 0 1 1237.82 289.19M1237.82 289.19 A88.992 88.992 0 0 0 1195.89 353.8" fill="#959698" fill-rule="nonzero"></path><path d="M1216.04 331.31 a8.9 8.9 0 1 0 17.8 0 a8.9 8.9 0 1 0 -17.8 0zM1245.26 356.53 a8.9 8.9 0 1 0 17.8 0 a8.9 8.9 0 1 0 -17.8 0zM1208.5 362.27 a8.9 8.9 0 1 0 17.8 0 a8.9 8.9 0 1 0 -17.8 0zM1221.45 299.89 a8.9 8.9 0 1 0 17.8 0 a8.9 8.9 0 1 0 -17.8 0zM1260.47 310.18 a5.78 5.78 0 1 0 11.56 0 a5.78 5.78 0 1 0 -11.56 0zM1195.15 315.74 a2.67 2.67 0 1 0 5.34 0 a2.67 2.67 0 1 0 -5.34 0zM1192.1 342.41 a1.78 1.78 0 1 0 3.56 0 a1.78 1.78 0 1 0 -3.56 0zM1268.05 343.23 a4.89 4.89 0 1 0 9.78 0 a4.89 4.89 0 1 0 -9.78 0zM1244.67 332.57 a6.23 6.23 0 1 0 12.46 0 a6.23 6.23 0 1 0 -12.46 0zM1247.78 294.49 a2.22 2.22 0 1 0 4.44 0 a2.22 2.22 0 1 0 -4.44 0z" fill="#959698" fill-rule="nonzero"></path><path d="M415.1 272.45L415.1 275.25L438.64 275.25L438.64 272.45zM433.69 273.85 a4.95 4.95 0 1 0 9.9 0 a4.95 4.95 0 1 0 -9.9 0zM411.58 292.98L410.51 295.57L424.07 301.18L425.14 298.6zM419.65 299.89 a4.95 4.95 0 1 0 9.9 0 a4.95 4.95 0 1 0 -9.9 0zM400.46 310.6L398.48 312.58L412.38 326.48L414.36 324.51zM408.42 325.49 a4.95 4.95 0 1 0 9.9 0 a4.95 4.95 0 1 0 -9.9 0zM383.45 322.63L380.86 323.7L386.78 337.97L389.36 336.9zM383.12 337.44 a4.95 4.95 0 1 0 9.9 0 a4.95 4.95 0 1 0 -9.9 0zM363.13 327.23L360.33 327.23L360.33 340.89L363.13 340.89zM356.78 340.89 a4.95 4.95 0 1 0 9.9 0 a4.95 4.95 0 1 0 -9.9 0zM342.59 323.7L340.01 322.63L334.83 335.13L337.41 336.2zM331.17 335.66 a4.95 4.95 0 1 0 9.9 0 a4.95 4.95 0 1 0 -9.9 0zM324.97 312.58L323 310.6L311.7 321.9L313.68 323.87zM307.74 322.89 a4.95 4.95 0 1 0 9.9 0 a4.95 4.95 0 1 0 -9.9 0zM312.95 295.57L311.88 292.98L292.8 300.89L293.87 303.47zM288.39 302.18 a4.95 4.95 0 1 0 9.9 0 a4.95 4.95 0 1 0 -9.9 0zM308.35 275.25L308.35 272.45L293.67 272.45L293.67 275.25zM288.72 273.85 a4.95 4.95 0 1 0 9.9 0 a4.95 4.95 0 1 0 -9.9 0zM311.88 254.71L312.95 252.13L300.73 247.07L299.67 249.66zM295.25 248.36 a4.95 4.95 0 1 0 9.9 0 a4.95 4.95 0 1 0 -9.9 0zM323 237.09L324.97 235.12L313.5 223.64L311.52 225.62zM307.56 224.63 a4.95 4.95 0 1 0 9.9 0 a4.95 4.95 0 1 0 -9.9 0zM340.01 225.07L342.59 224L333.71 202.57L331.13 203.64zM327.47 203.1 a4.95 4.95 0 1 0 9.9 0 a4.95 4.95 0 1 0 -9.9 0zM360.33 220.47L363.13 220.47L363.13 198.63L360.33 198.63zM356.78 198.63 a4.95 4.95 0 1 0 9.9 0 a4.95 4.95 0 1 0 -9.9 0zM380.86 224L383.45 225.07L388.62 212.59L386.03 211.52zM382.37 212.05 a4.95 4.95 0 1 0 9.9 0 a4.95 4.95 0 1 0 -9.9 0zM398.48 235.12L400.46 237.09L416.09 221.47L414.11 219.49zM410.15 220.48 a4.95 4.95 0 1 0 9.9 0 a4.95 4.95 0 1 0 -9.9 0zM410.51 252.13L411.58 254.71L430.2 247L429.13 244.42zM424.72 245.71 a4.95 4.95 0 1 0 9.9 0 a4.95 4.95 0 1 0 -9.9 0zM308.33 273.85 a53.4 53.4 0 1 0 106.8 0 a53.4 53.4 0 1 0 -106.8 0z" fill="rgba(187, 188, 189, 1)"></path><path d="M379.56 324.18 A52.3952 52.3952 0 0 1 309.2 264.24M309.2 264.24 A106.7904 106.7904 0 0 0 379.56 324.18" fill="#959698" fill-rule="nonzero"></path><path d="M329.09 287.01 a10.68 10.68 0 1 0 21.36 0 a10.68 10.68 0 1 0 -21.36 0zM355.37 250.86 a10.68 10.68 0 1 0 21.36 0 a10.68 10.68 0 1 0 -21.36 0zM385.98 241.36 a4.81 4.81 0 1 0 9.62 0 a4.81 4.81 0 1 0 -9.62 0zM318.73 244.15 a3.2 3.2 0 1 0 6.4 0 a3.2 3.2 0 1 0 -6.4 0zM308.71 276.29 a4.27 4.27 0 1 0 8.54 0 a4.27 4.27 0 1 0 -8.54 0zM388.46 266.81 a10.68 10.68 0 1 0 21.36 0 a10.68 10.68 0 1 0 -21.36 0zM360.17 278.49 a5.34 5.34 0 1 0 10.68 0 a5.34 5.34 0 1 0 -10.68 0zM387.66 289.51 a2.67 2.67 0 1 0 5.34 0 a2.67 2.67 0 1 0 -5.34 0zM356.67 316.98 a9.61 9.61 0 1 0 19.22 0 a9.61 9.61 0 1 0 -19.22 0zM344.5 229.37 a5.34 5.34 0 1 0 10.68 0 a5.34 5.34 0 1 0 -10.68 0z" fill="#959698" fill-rule="nonzero"></path><path d="M96.95 445.28L96.95 447.14L102.88 447.14L102.88 445.28zM99.58 446.21 a3.3 3.3 0 1 0 6.6 0 a3.3 3.3 0 1 0 -6.6 0zM94.6 458.97L93.89 460.69L98.38 462.55L99.09 460.82zM95.44 461.69 a3.3 3.3 0 1 0 6.6 0 a3.3 3.3 0 1 0 -6.6 0zM87.19 470.71L85.87 472.03L96.13 482.28L97.44 480.96zM93.49 481.62 a3.3 3.3 0 1 0 6.6 0 a3.3 3.3 0 1 0 -6.6 0zM75.85 478.73L74.13 479.44L76.66 485.55L78.38 484.83zM74.22 485.19 a3.3 3.3 0 1 0 6.6 0 a3.3 3.3 0 1 0 -6.6 0zM62.3 481.79L60.44 481.79L60.44 495.96L62.3 495.96zM58.07 495.96 a3.3 3.3 0 1 0 6.6 0 a3.3 3.3 0 1 0 -6.6 0zM48.61 479.44L46.89 478.73L45.18 482.87L46.9 483.58zM42.74 483.22 a3.3 3.3 0 1 0 6.6 0 a3.3 3.3 0 1 0 -6.6 0zM36.87 472.03L35.55 470.71L26.82 479.44L28.14 480.76zM24.18 480.1 a3.3 3.3 0 1 0 6.6 0 a3.3 3.3 0 1 0 -6.6 0zM28.85 460.69L28.14 458.97L17.21 463.49L17.92 465.21zM14.26 464.35 a3.3 3.3 0 1 0 6.6 0 a3.3 3.3 0 1 0 -6.6 0zM25.79 447.14L25.79 445.28L10.45 445.28L10.45 447.14zM7.15 446.21 a3.3 3.3 0 1 0 6.6 0 a3.3 3.3 0 1 0 -6.6 0zM28.14 433.45L28.85 431.73L16.75 426.72L16.03 428.44zM13.09 427.58 a3.3 3.3 0 1 0 6.6 0 a3.3 3.3 0 1 0 -6.6 0zM35.55 421.71L36.87 420.39L31.46 414.99L30.15 416.3zM27.51 415.64 a3.3 3.3 0 1 0 6.6 0 a3.3 3.3 0 1 0 -6.6 0zM46.89 413.69L48.61 412.98L43.89 401.57L42.17 402.28zM39.73 401.92 a3.3 3.3 0 1 0 6.6 0 a3.3 3.3 0 1 0 -6.6 0zM60.44 410.62L62.3 410.62L62.3 404.05L60.44 404.05zM58.07 404.05 a3.3 3.3 0 1 0 6.6 0 a3.3 3.3 0 1 0 -6.6 0zM74.13 412.98L75.85 413.69L81.05 401.13L79.33 400.42zM76.89 400.78 a3.3 3.3 0 1 0 6.6 0 a3.3 3.3 0 1 0 -6.6 0zM85.87 420.39L87.19 421.71L90.72 418.18L89.4 416.86zM86.76 417.52 a3.3 3.3 0 1 0 6.6 0 a3.3 3.3 0 1 0 -6.6 0zM93.89 431.73L94.6 433.45L99.84 431.28L99.13 429.56zM96.18 430.42 a3.3 3.3 0 1 0 6.6 0 a3.3 3.3 0 1 0 -6.6 0zM25.77 446.21 a35.6 35.6 0 1 0 71.2 0 a35.6 35.6 0 1 0 -71.2 0z" fill="rgba(187, 188, 189, 1)"></path><path d="M58.08 481.65 A34.5968 34.5968 0 0 1 32.28 425.69M32.28 425.69 A71.1936 71.1936 0 0 0 58.08 481.65" fill="#959698" fill-rule="nonzero"></path><path d="M31.57 456.02 a7.12 7.12 0 1 0 14.24 0 a7.12 7.12 0 1 0 -14.24 0zM49.11 443.55 a7.12 7.12 0 1 0 14.24 0 a7.12 7.12 0 1 0 -14.24 0zM45.35 476.31 a2.49 2.49 0 1 0 4.98 0 a2.49 2.49 0 1 0 -4.98 0zM72.29 436.92 a7.12 7.12 0 1 0 14.24 0 a7.12 7.12 0 1 0 -14.24 0zM78.04 463.9 a6.41 6.41 0 1 0 12.82 0 a6.41 6.41 0 1 0 -12.82 0zM62.71 457.79 a2.49 2.49 0 1 0 4.98 0 a2.49 2.49 0 1 0 -4.98 0zM66.7 421.63 a3.56 3.56 0 1 0 7.12 0 a3.56 3.56 0 1 0 -7.12 0zM40.38 420.09 a4.27 4.27 0 1 0 8.54 0 a4.27 4.27 0 1 0 -8.54 0zM28.59 440.25 a2.85 2.85 0 1 0 5.7 0 a2.85 2.85 0 1 0 -5.7 0zM63.02 471.34 a3.92 3.92 0 1 0 7.84 0 a3.92 3.92 0 1 0 -7.84 0z" fill="#959698" fill-rule="nonzero"></path><path d="M942.93 443.8L942.93 447.06L954.18 447.06L954.18 443.8zM948.4 445.43 a5.78 5.78 0 1 0 11.56 0 a5.78 5.78 0 1 0 -11.56 0zM938.82 467.75L937.57 470.77L960.91 480.43L962.16 477.42zM955.75 478.93 a5.78 5.78 0 1 0 11.56 0 a5.78 5.78 0 1 0 -11.56 0zM925.85 488.31L923.54 490.61L938.11 505.18L940.41 502.87zM933.48 504.03 a5.78 5.78 0 1 0 11.56 0 a5.78 5.78 0 1 0 -11.56 0zM906 502.34L902.99 503.58L914.62 531.67L917.63 530.42zM910.35 531.05 a5.78 5.78 0 1 0 11.56 0 a5.78 5.78 0 1 0 -11.56 0zM882.29 507.7L879.03 507.7L879.03 534.29L882.29 534.29zM874.88 534.29 a5.78 5.78 0 1 0 11.56 0 a5.78 5.78 0 1 0 -11.56 0zM858.34 503.58L855.32 502.34L850.11 514.93L853.12 516.18zM845.83 515.55 a5.78 5.78 0 1 0 11.56 0 a5.78 5.78 0 1 0 -11.56 0zM837.78 490.61L835.47 488.31L826.66 497.12L828.97 499.43zM822.04 498.27 a5.78 5.78 0 1 0 11.56 0 a5.78 5.78 0 1 0 -11.56 0zM823.75 470.77L822.5 467.75L812.97 471.7L814.22 474.71zM807.81 473.21 a5.78 5.78 0 1 0 11.56 0 a5.78 5.78 0 1 0 -11.56 0zM818.39 447.06L818.39 443.8L797.1 443.8L797.1 447.06zM791.32 445.43 a5.78 5.78 0 1 0 11.56 0 a5.78 5.78 0 1 0 -11.56 0zM822.5 423.1L823.75 420.09L803.18 411.57L801.93 414.58zM796.77 413.07 a5.78 5.78 0 1 0 11.56 0 a5.78 5.78 0 1 0 -11.56 0zM835.47 402.55L837.78 400.24L818.47 380.93L816.16 383.24zM811.54 382.08 a5.78 5.78 0 1 0 11.56 0 a5.78 5.78 0 1 0 -11.56 0zM855.32 388.52L858.34 387.27L847.52 361.16L844.51 362.41zM840.24 361.79 a5.78 5.78 0 1 0 11.56 0 a5.78 5.78 0 1 0 -11.56 0zM879.03 383.15L882.29 383.15L882.29 366.7L879.03 366.7zM874.88 366.7 a5.78 5.78 0 1 0 11.56 0 a5.78 5.78 0 1 0 -11.56 0zM902.99 387.27L906 388.52L909.34 380.44L906.33 379.2zM902.06 379.82 a5.78 5.78 0 1 0 11.56 0 a5.78 5.78 0 1 0 -11.56 0zM923.54 400.24L925.85 402.55L937.4 390.99L935.1 388.69zM930.47 389.84 a5.78 5.78 0 1 0 11.56 0 a5.78 5.78 0 1 0 -11.56 0zM937.57 420.09L938.82 423.1L954.38 416.66L953.13 413.65zM947.97 415.15 a5.78 5.78 0 1 0 11.56 0 a5.78 5.78 0 1 0 -11.56 0zM818.37 445.43 a62.29 62.29 0 1 0 124.58 0 a62.29 62.29 0 1 0 -124.58 0z" fill="rgba(187, 188, 189, 1)"></path><path d="M825.53 474.43 A61.294399999999996 61.294399999999996 0 0 1 882.98 383.18M882.98 383.18 A124.58879999999999 124.58879999999999 0 0 0 825.53 474.43" fill="#959698" fill-rule="nonzero"></path><path d="M835.92 427.67 a12.46 12.46 0 1 0 24.92 0 a12.46 12.46 0 1 0 -24.92 0zM925.07 422.57 a6.23 6.23 0 1 0 12.46 0 a6.23 6.23 0 1 0 -12.46 0zM860.78 496.68 a9.34 9.34 0 1 0 18.68 0 a9.34 9.34 0 1 0 -18.68 0zM874.35 442.19 a12.46 12.46 0 1 0 24.92 0 a12.46 12.46 0 1 0 -24.92 0zM864.95 405.02 a8.72 8.72 0 1 0 17.44 0 a8.72 8.72 0 1 0 -17.44 0zM848.16 462.34 a9.97 9.97 0 1 0 19.94 0 a9.97 9.97 0 1 0 -19.94 0zM910.54 433.56 a2.49 2.49 0 1 0 4.98 0 a2.49 2.49 0 1 0 -4.98 0zM922.37 471.95 a6.85 6.85 0 1 0 13.7 0 a6.85 6.85 0 1 0 -13.7 0zM882.75 475.39 a6.23 6.23 0 1 0 12.46 0 a6.23 6.23 0 1 0 -12.46 0zM904.55 487.31 a2.49 2.49 0 1 0 4.98 0 a2.49 2.49 0 1 0 -4.98 0z" fill="#959698" fill-rule="nonzero"></path><path d="M1020.44 128.05L1020.44 131.78L1043.99 131.78L1043.99 128.05zM1037.39 129.92 a6.6 6.6 0 1 0 13.2 0 a6.6 6.6 0 1 0 -13.2 0zM1015.74 155.43L1014.31 158.87L1031.11 165.83L1032.54 162.39zM1025.22 164.11 a6.6 6.6 0 1 0 13.2 0 a6.6 6.6 0 1 0 -13.2 0zM1000.92 178.92L998.28 181.56L1007.42 190.7L1010.06 188.07zM1002.14 189.38 a6.6 6.6 0 1 0 13.2 0 a6.6 6.6 0 1 0 -13.2 0zM978.23 194.96L974.79 196.38L982.75 215.6L986.19 214.17zM977.87 214.89 a6.6 6.6 0 1 0 13.2 0 a6.6 6.6 0 1 0 -13.2 0zM951.14 201.09L947.41 201.09L947.41 227.21L951.14 227.21zM942.67 227.21 a6.6 6.6 0 1 0 13.2 0 a6.6 6.6 0 1 0 -13.2 0zM923.76 196.38L920.32 194.96L910.37 218.98L913.81 220.4zM905.49 219.69 a6.6 6.6 0 1 0 13.2 0 a6.6 6.6 0 1 0 -13.2 0zM900.27 181.56L897.63 178.92L891.28 185.28L893.91 187.92zM885.99 186.6 a6.6 6.6 0 1 0 13.2 0 a6.6 6.6 0 1 0 -13.2 0zM884.24 158.87L882.81 155.43L869.69 160.86L871.12 164.31zM863.8 162.59 a6.6 6.6 0 1 0 13.2 0 a6.6 6.6 0 1 0 -13.2 0zM878.1 131.78L878.1 128.05L854.58 128.05L854.58 131.78zM847.98 129.92 a6.6 6.6 0 1 0 13.2 0 a6.6 6.6 0 1 0 -13.2 0zM882.81 104.4L884.24 100.96L857.32 89.81L855.9 93.26zM850.01 91.53 a6.6 6.6 0 1 0 13.2 0 a6.6 6.6 0 1 0 -13.2 0zM897.63 80.91L900.27 78.28L882.38 60.39L879.75 63.03zM874.47 61.71 a6.6 6.6 0 1 0 13.2 0 a6.6 6.6 0 1 0 -13.2 0zM920.32 64.88L923.76 63.45L912.72 36.79L909.27 38.22zM904.39 37.5 a6.6 6.6 0 1 0 13.2 0 a6.6 6.6 0 1 0 -13.2 0zM947.41 58.75L951.14 58.75L951.14 41.37L947.41 41.37zM942.67 41.37 a6.6 6.6 0 1 0 13.2 0 a6.6 6.6 0 1 0 -13.2 0zM974.79 63.45L978.23 64.88L990.22 35.93L986.78 34.51zM981.9 35.22 a6.6 6.6 0 1 0 13.2 0 a6.6 6.6 0 1 0 -13.2 0zM998.28 78.28L1000.92 80.91L1011.07 70.76L1008.43 68.12zM1003.15 69.44 a6.6 6.6 0 1 0 13.2 0 a6.6 6.6 0 1 0 -13.2 0zM1014.31 100.96L1015.74 104.4L1038.73 94.88L1037.31 91.44zM1031.42 93.16 a6.6 6.6 0 1 0 13.2 0 a6.6 6.6 0 1 0 -13.2 0zM878.08 129.92 a71.19 71.19 0 1 0 142.38 0 a71.19 71.19 0 1 0 -142.38 0z" fill="rgba(187, 188, 189, 1)"></path><path d="M878.1 128.41 A70.1936 70.1936 0 0 1 986.04 68.95M986.04 68.95 A142.3872 142.3872 0 0 0 878.1 128.41" fill="#959698" fill-rule="nonzero"></path><path d="M921.56 179.77 a14.24 14.24 0 1 0 28.48 0 a14.24 14.24 0 1 0 -28.48 0zM943.51 69.78 a10.68 10.68 0 1 0 21.36 0 a10.68 10.68 0 1 0 -21.36 0zM995.57 134.86 a12.1 12.1 0 1 0 24.2 0 a12.1 12.1 0 1 0 -24.2 0zM965.78 129.33 a7.83 7.83 0 1 0 15.66 0 a7.83 7.83 0 1 0 -15.66 0zM884.98 140.58 a14.24 14.24 0 1 0 28.48 0 a14.24 14.24 0 1 0 -28.48 0zM958.81 151.4 a2.85 2.85 0 1 0 5.7 0 a2.85 2.85 0 1 0 -5.7 0zM933.01 101.23 a8.54 8.54 0 1 0 17.08 0 a8.54 8.54 0 1 0 -17.08 0zM964.19 183.52 a6.41 6.41 0 1 0 12.82 0 a6.41 6.41 0 1 0 -12.82 0zM983.69 106.38 a5.7 5.7 0 1 0 11.4 0 a5.7 5.7 0 1 0 -11.4 0zM919.6 76.96 a4.98 4.98 0 1 0 9.96 0 a4.98 4.98 0 1 0 -9.96 0z" fill="#959698" fill-rule="nonzero"></path><path d="M202.57 150.48L202.57 153.27L228.58 153.27L228.58 150.48zM223.63 151.87 a4.95 4.95 0 1 0 9.9 0 a4.95 4.95 0 1 0 -9.9 0zM199.04 171.01L197.97 173.59L218.43 182.07L219.5 179.49zM214.02 180.78 a4.95 4.95 0 1 0 9.9 0 a4.95 4.95 0 1 0 -9.9 0zM187.92 188.63L185.95 190.61L191.09 195.75L193.07 193.78zM187.13 194.77 a4.95 4.95 0 1 0 9.9 0 a4.95 4.95 0 1 0 -9.9 0zM170.91 200.65L168.33 201.72L176.82 222.22L179.4 221.15zM173.16 221.69 a4.95 4.95 0 1 0 9.9 0 a4.95 4.95 0 1 0 -9.9 0zM150.59 205.25L147.79 205.25L147.79 224.12L150.59 224.12zM144.24 224.12 a4.95 4.95 0 1 0 9.9 0 a4.95 4.95 0 1 0 -9.9 0zM130.06 201.72L127.47 200.65L119.07 220.95L121.65 222.02zM115.41 221.49 a4.95 4.95 0 1 0 9.9 0 a4.95 4.95 0 1 0 -9.9 0zM112.44 190.61L110.46 188.63L97.6 201.48L99.58 203.46zM93.64 202.47 a4.95 4.95 0 1 0 9.9 0 a4.95 4.95 0 1 0 -9.9 0zM100.41 173.59L99.34 171.01L87.85 175.77L88.92 178.35zM83.43 177.06 a4.95 4.95 0 1 0 9.9 0 a4.95 4.95 0 1 0 -9.9 0zM95.81 153.27L95.81 150.48L88.32 150.48L88.32 153.27zM83.37 151.87 a4.95 4.95 0 1 0 9.9 0 a4.95 4.95 0 1 0 -9.9 0zM99.34 132.74L100.41 130.16L87.95 124.99L86.88 127.58zM82.46 126.29 a4.95 4.95 0 1 0 9.9 0 a4.95 4.95 0 1 0 -9.9 0zM110.46 115.12L112.44 113.14L102.32 103.02L100.34 105zM96.38 104.01 a4.95 4.95 0 1 0 9.9 0 a4.95 4.95 0 1 0 -9.9 0zM127.47 103.1L130.06 102.03L123.41 85.97L120.82 87.04zM117.16 86.5 a4.95 4.95 0 1 0 9.9 0 a4.95 4.95 0 1 0 -9.9 0zM147.79 98.5L150.59 98.5L150.59 86.5L147.79 86.5zM144.24 86.5 a4.95 4.95 0 1 0 9.9 0 a4.95 4.95 0 1 0 -9.9 0zM168.33 102.03L170.91 103.1L174.09 95.41L171.51 94.34zM167.85 94.87 a4.95 4.95 0 1 0 9.9 0 a4.95 4.95 0 1 0 -9.9 0zM185.95 113.14L187.92 115.12L195.01 108.03L193.04 106.05zM189.08 107.04 a4.95 4.95 0 1 0 9.9 0 a4.95 4.95 0 1 0 -9.9 0zM197.97 130.16L199.04 132.74L206.6 129.61L205.53 127.03zM201.11 128.32 a4.95 4.95 0 1 0 9.9 0 a4.95 4.95 0 1 0 -9.9 0zM95.79 151.87 a53.4 53.4 0 1 0 106.8 0 a53.4 53.4 0 1 0 -106.8 0z" fill="rgba(187, 188, 189, 1)"></path><path d="M144.32 205.05 A52.3952 52.3952 0 0 1 105.51 121.16M105.51 121.16 A106.7904 106.7904 0 0 0 144.32 205.05" fill="#959698" fill-rule="nonzero"></path><path d="M156.66 149.16 a10.68 10.68 0 1 0 21.36 0 a10.68 10.68 0 1 0 -21.36 0zM114.33 125.9 a10.68 10.68 0 1 0 21.36 0 a10.68 10.68 0 1 0 -21.36 0zM101.82 149.48 a6.94 6.94 0 1 0 13.88 0 a6.94 6.94 0 1 0 -13.88 0zM183.35 177.43 a5.87 5.87 0 1 0 11.74 0 a5.87 5.87 0 1 0 -11.74 0zM134.7 194.19 a10.68 10.68 0 1 0 21.36 0 a10.68 10.68 0 1 0 -21.36 0zM188.7 151.15 a3.2 3.2 0 1 0 6.4 0 a3.2 3.2 0 1 0 -6.4 0zM150.61 107.06 a7.48 7.48 0 1 0 14.96 0 a7.48 7.48 0 1 0 -14.96 0zM176.15 117.71 a5.87 5.87 0 1 0 11.74 0 a5.87 5.87 0 1 0 -11.74 0zM127.67 157.82 a9.61 9.61 0 1 0 19.22 0 a9.61 9.61 0 1 0 -19.22 0zM120.39 184.59 a2.67 2.67 0 1 0 5.34 0 a2.67 2.67 0 1 0 -5.34 0z" fill="#959698" fill-rule="nonzero"></path></g><defs><mask id="SvgjsMask1005"><rect width="1440" height="560" fill="#ffffff"></rect></mask></defs></svg>